<svg xmlns="http://www.w3.org/2000/svg" aria-hidden="true" style="position:absolute;width:0;height:0;overflow:hidden">
  <defs>
    <symbol id="icon-chevron_right" viewBox="0 0 32 32">
      <path stroke-width="1.333" d="M12.516 8.897c.134 0 .237.041.341.145l6.592 6.592a.6.6 0 0 1 .121.165v.001q.03.069.031.165c.001.096-.012.118-.031.165v.001a.6.6 0 0 1-.121.165l-6.625 6.625c-.104.104-.193.133-.301.129a.5.5 0 0 1-.348-.161c-.104-.104-.146-.207-.146-.341s.042-.237.146-.341l6.242-6.242-6.276-6.276c-.104-.104-.133-.192-.129-.299a.5.5 0 0 1 .163-.349.45.45 0 0 1 .34-.145z"/>
    </symbol>
    <symbol id="icon-arrow_up" viewBox="0 0 32 32">
      <path stroke-width="1.333" d="M15.999 11.605c.125 0 .227.038.333.145l6.591 6.592c.109.109.145.208.145.324s-.035.215-.145.324c-.104.104-.207.145-.341.145s-.236-.041-.34-.145l-.001-.001-6.244-6.207-6.241 6.241c-.104.104-.192.133-.299.129a.5.5 0 0 1-.349-.161c-.104-.104-.145-.207-.145-.341s.04-.237.145-.341l6.559-6.559a.44.44 0 0 1 .332-.145"/>
    </symbol>
    <symbol id="icon-arrow_down" viewBox="0 0 32 32">
      <path stroke-width="1.333" d="M9.449 12.031c.134 0 .237.041.341.145l6.208 6.244 6.243-6.244c.104-.103.192-.133.299-.129a.5.5 0 0 1 .349.163c.104.104.145.207.145.341s-.041.236-.145.34L16.33 19.45a.5.5 0 0 1-.167.122.4.4 0 0 1-.165.031.5.5 0 0 1-.09-.009l-.077-.022-.07-.04a1 1 0 0 1-.095-.082l-6.592-6.591a.4.4 0 0 1-.129-.318.5.5 0 0 1 .163-.365.45.45 0 0 1 .34-.145z"/>
    </symbol>
    <symbol id="icon-bookmark" viewBox="0 0 32 32">
      <path d="m16 24.223-6.358 2.72q-1.135.49-2.155-.184c-1.02-.674-1.02-1.084-1.02-1.905V5.904q0-.923.676-1.601c.676-.678.982-.678 1.595-.678h14.523q.924 0 1.601.678c.677.678.678.985.678 1.601v18.95q0 1.231-1.024 1.905c-1.024.674-1.402.51-2.159.184zm0-2.429 7.262 3.061V5.905H8.739v18.95l7.262-3.061zm0-15.889"/>
    </symbol>
    <symbol id="icon-close" viewBox="0 0 32 32">
      <path stroke-width="1.333" d="M23.466 7.9c.219 0 .355.065.462.172s.172.242.172.461-.065.355-.172.462L16.923 16l7.005 7.004c.107.107.172.243.172.462s-.065.355-.172.462-.243.172-.462.172-.355-.065-.462-.172L16 16.923l-7.005 7.005c-.107.107-.243.172-.462.172s-.354-.065-.461-.172-.172-.243-.172-.462.065-.355.172-.462L15.076 16 8.072 8.995c-.107-.107-.172-.243-.172-.462s.065-.354.172-.461.242-.172.461-.172.355.065.462.172L16 15.076l7.004-7.004c.107-.107.243-.172.462-.172"/>
    </symbol>
    <symbol id="icon-logout" viewBox="0 0 32 32">
      <path d="M6.072 28.199q-.92 0-1.595-.676c-.675-.676-.676-.982-.676-1.595V6.071q0-.923.676-1.601c.676-.678.982-.678 1.595-.678h8.807q.481 0 .808.334c.327.334.327.495.327.816q0 .482-.327.806c-.327.324-.487.323-.808.323H6.072v19.857h8.807q.481 0 .808.329c.327.329.327.49.327.812q0 .483-.327.806c-.327.323-.487.323-.808.323zm17.784-11.063H13.088q-.48 0-.808-.329c-.328-.329-.327-.49-.327-.812q0-.483.327-.806c.327-.323.488-.323.808-.323h10.701l-2.564-2.564q-.34-.342-.323-.8c.017-.458.13-.571.357-.795q.339-.343.81-.34c.471.003.585.117.815.344l4.529 4.529q.332.342.332.797c0 .455-.111.568-.332.794l-4.496 4.496q-.333.339-.792.327c-.459-.012-.577-.126-.812-.352q-.327-.34-.331-.811c-.004-.471.112-.586.344-.813l2.531-2.539z"/>
    </symbol>
    <symbol id="icon-menu" viewBox="0 0 32 32">
      <path d="M4.936 24.295q-.481 0-.808-.329c-.327-.329-.327-.493-.327-.82q0-.483.327-.807c.327-.324.488-.323.808-.323h22.127q.481 0 .812.329c.331.329.331.49.331.812q0 .492-.331.814c-.331.322-.492.323-.812.323zm0-7.159q-.481 0-.808-.329c-.327-.329-.327-.49-.327-.812q0-.483.327-.806c.327-.323.488-.323.808-.323h22.127q.481 0 .812.329c.331.329.331.49.331.812q0 .483-.331.806c-.331.323-.492.323-.812.323zm0-7.152q-.481 0-.808-.329c-.327-.329-.327-.493-.327-.82q0-.483.327-.806c.327-.323.488-.323.808-.323h22.127q.481 0 .812.329c.331.329.331.49.331.812q0 .492-.331.815c-.331.323-.492.323-.812.323z"/>
    </symbol>
    <symbol id="icon-edit" viewBox="0 0 32 32">
      <path d="M6.064 25.928h1.475l15.327-15.294-1.459-1.467L6.064 24.469zm-1.128 2.271a1.1 1.1 0 0 1-1.135-1.135v-2.561q0-.456.187-.891c.187-.435.289-.537.493-.742L22.952 4.424q.275-.282.661-.441c.386-.159.525-.158.803-.158q.383 0 .765.158c.382.158.491.25.707.433l1.73 1.706q.308.324.449.711c.141.387.141.517.141.777q0 .39-.158.79c-.158.4-.25.494-.433.682L9.146 27.52q-.315.307-.746.493c-.431.186-.583.187-.887.187zM22.14 9.893l-.733-.725 1.459 1.467-.725-.741z"/>
    </symbol>
    <symbol id="icon-arrow_back" viewBox="0 0 32 32">
      <path stroke-width="1.333" d="M16.01 6.249c.114 0 .212.035.322.145a.45.45 0 0 1 .145.332.43.43 0 0 1-.145.324L7.85 15.532h17.88a.45.45 0 0 1 .477.469c0 .16-.046.255-.129.337a.46.46 0 0 1-.348.132H7.85l8.474 8.473c.11.11.147.212.148.335v.001a.4.4 0 0 1-.074.246l-.069.082a.42.42 0 0 1-.323.142.46.46 0 0 1-.341-.151l-9.264-9.264a.5.5 0 0 1-.121-.167v-.001q-.03-.071-.031-.165c-.001-.094.012-.116.031-.163v-.001a.6.6 0 0 1 .121-.167l9.267-9.267a.47.47 0 0 1 .342-.152z"/>
    </symbol>
    <symbol id="icon-arrow_forward" viewBox="0 0 32 32">
      <path stroke-width="1.333" d="M15.993 6.253a.43.43 0 0 1 .259.081l.082.07 9.264 9.264a.5.5 0 0 1 .121.167v.001q.03.071.031.165c.001.094-.012.116-.031.163v.001a.6.6 0 0 1-.121.167l-9.272 9.264c-.122.12-.227.155-.337.155-.108 0-.204-.033-.315-.147l-.007-.007-.069-.081c-.056-.079-.075-.157-.075-.243s.02-.163.075-.242l.069-.081 8.482-8.482H6.269c-.163 0-.259-.047-.34-.128h-.001a.44.44 0 0 1-.128-.341c0-.162.046-.26.128-.341h.001c.081-.081.177-.127.34-.128h17.88l-8.474-8.474a.47.47 0 0 1-.141-.246l-.008-.09a.42.42 0 0 1 .141-.326l.001-.001a.42.42 0 0 1 .324-.142z"/>
    </symbol>
    <symbol id="icon-eco" viewBox="0 0 32 32">
      <path d="M6.964 26.302Q5.471 24.77 4.636 22.76c-.835-2.01-.835-2.71-.835-4.11q0-2.457.866-4.51c.866-2.053 1.438-2.625 2.582-3.769q2.147-2.139 6.119-3.076c3.972-.937 5.899-.893 9.75-.803q.747.033 1.36.303c.613.27.779.429 1.11.75q.487.488.772 1.101c.285.613.295.865.315 1.368q.091 2.889-.075 5.336c-.166 2.447-.328 3.117-.65 4.456q-.483 2.008-1.264 3.573c-.781 1.565-1.148 1.934-1.883 2.671q-1.7 1.707-3.701 2.591c-2.001.884-2.758.883-4.272.883q-2.346 0-4.294-.779c-1.948-.779-2.49-1.334-3.571-2.443zm3.609-.207q.838.567 1.936.859c1.098.292 1.503.292 2.316.292q1.752 0 3.402-.729c1.65-.729 2.097-1.188 2.992-2.105q.956-.965 1.593-2.502c.637-1.537.763-2.208 1.013-3.549q.377-2.011.486-4.436c.109-2.425.068-3.334-.016-5.153q-3.11-.075-5.577.079c-2.467.154-3.097.287-4.355.554s-2.338.607-3.239 1.021q-1.35.621-2.194 1.497-1.376 1.401-2.117 2.996c-.741 1.595-.741 2.14-.741 3.231q0 1.566.663 3.301c.663 1.735.998 2.089 1.666 2.794q1.717-3.219 4.159-5.787c2.442-2.568 3.386-3.081 5.273-4.108q-2.868 2.508-4.66 5.417c-1.792 2.909-2.062 4.048-2.6 6.328"/>
    </symbol>
    <symbol id="icon-Facebook" viewBox="0 0 32 32">
      <path d="M29.333 16.405C29.333 8.996 23.364 2.99 16 2.99S2.667 8.996 2.667 16.405c0 6.696 4.876 12.245 11.25 13.252v-9.374h-3.385v-3.878h3.385V13.45c0-3.362 1.991-5.219 5.036-5.219 1.459 0 2.985.262 2.985.262v3.301h-1.681c-1.656 0-2.173 1.034-2.173 2.095v2.516h3.698l-.591 3.878h-3.107v9.374c6.374-1.006 11.25-6.556 11.25-13.252z"/>
    </symbol>
    <symbol id="icon-Instagram" viewBox="0 0 32 32">
      <path d="M16.007 6.488c3.206 0 3.585.014 4.846.071 1.172.052 1.804.248 2.227.412.558.216.961.478 1.378.895.422.422.679.82.9 1.378.164.422.361 1.059.412 2.226.056 1.266.071 1.645.071 4.847s-.014 3.585-.071 4.847c-.052 1.172-.248 1.804-.412 2.227a3.7 3.7 0 0 1-.895 1.377c-.422.422-.82.679-1.377.9-.422.164-1.06.361-2.227.412-1.266.056-1.645.071-4.847.071s-3.585-.014-4.847-.071c-1.172-.052-1.804-.248-2.226-.412a3.7 3.7 0 0 1-1.378-.895 3.8 3.8 0 0 1-.9-1.378c-.164-.422-.361-1.06-.412-2.226-.056-1.266-.071-1.645-.071-4.847s.014-3.585.071-4.847c.052-1.172.248-1.804.412-2.226.216-.558.478-.961.895-1.378.422-.422.82-.679 1.378-.9.422-.164 1.059-.361 2.226-.412 1.261-.056 1.641-.071 4.847-.071h.001zm0-2.16c-3.258 0-3.665.014-4.945.071-1.275.056-2.151.262-2.91.558a5.85 5.85 0 0 0-2.127 1.387 5.9 5.9 0 0 0-1.387 2.123c-.295.764-.502 1.636-.558 2.91-.056 1.285-.071 1.692-.071 4.949s.014 3.665.071 4.945c.056 1.275.262 2.151.558 2.91a5.9 5.9 0 0 0 1.387 2.127 5.9 5.9 0 0 0 2.123 1.383c.764.295 1.636.502 2.91.558 1.279.056 1.687.071 4.945.071s3.665-.014 4.945-.071c1.275-.056 2.151-.262 2.91-.558.787-.305 1.458-.717 2.123-1.383s1.078-1.336 1.383-2.123c.295-.764.502-1.635.558-2.91.056-1.279.07-1.687.07-4.945s-.014-3.665-.07-4.945c-.056-1.275-.263-2.151-.558-2.91a5.6 5.6 0 0 0-1.373-2.133 5.9 5.9 0 0 0-2.123-1.383c-.764-.295-1.636-.502-2.91-.558-1.284-.061-1.692-.075-4.949-.075l-.001.001z"/>
      <path d="M16.007 10.163a6.164 6.164 0 1 0 6.163 6.163 6.164 6.164 0 0 0-6.163-6.163m0 10.161a3.998 3.998 0 1 1 0-7.996 3.998 3.998 0 0 1 0 7.996M23.851 9.919a1.439 1.439 0 1 1-2.877 0 1.439 1.439 0 0 1 2.877 0"/>
    </symbol>
    <symbol id="icon-X" viewBox="0 0 32 32">
      <path d="M22.901 5.657h3.68l-8.04 9.037L28 26.991h-7.406l-5.801-7.458-6.637 7.458H4.474l8.6-9.666L4 5.657h7.594l5.243 6.817zM21.61 24.824h2.039L10.486 7.709H8.298z"/>
    </symbol>
    <symbol id="icon-Youtube" viewBox="0 0 32 32">
      <path d="M28.79 9.604a3.35 3.35 0 0 0-2.35-2.354c-2.088-.573-10.441-.583-10.441-.583s-8.352-.009-10.441.539a3.416 3.416 0 0 0-2.354 2.371c-.551 2.088-.556 6.419-.556 6.419s-.005 4.352.541 6.419a3.34 3.34 0 0 0 2.351 2.353c2.109.573 10.44.583 10.44.583s8.353.009 10.441-.537a3.36 3.36 0 0 0 2.356-2.35c.552-2.087.556-6.416.556-6.416s.027-4.353-.543-6.441zM13.328 20.007l.007-8 6.943 4.007z"/>
    </symbol>
    <symbol id="icon-chevron_left" viewBox="0 0 32 32">
      <path stroke-width="1.333" d="M18.716 8.865c.134 0 .237.041.341.145s.145.207.145.341-.04.237-.145.341l-6.276 6.276 6.276 6.275c.104.104.133.193.129.301a.5.5 0 0 1-.161.348c-.104.104-.207.146-.341.146s-.237-.042-.341-.146l-6.592-6.591a1 1 0 0 1-.082-.096l-.039-.07a.4.4 0 0 1-.031-.165q0-.049.008-.09l.023-.077a.6.6 0 0 1 .121-.167l6.626-6.625a.45.45 0 0 1 .34-.145z"/>
    </symbol>
  </defs>
</svg>
