<svg width="124" height="36" viewBox="0 0 124 36" fill="none" xmlns="http://www.w3.org/2000/svg">
<g clip-path="url(#clip0_9203_70124)">
<path d="M8.21937 25.2267C7.47304 24.4607 6.89095 23.5753 6.47312 22.5705C6.05545 21.5658 5.84662 20.5383 5.84662 19.488C5.84662 18.2595 6.06312 17.1321 6.49612 16.1057C6.92912 15.0794 7.57462 14.1372 8.43262 13.2792C9.50579 12.2101 11.0356 11.441 13.0221 10.972C15.0088 10.503 17.4463 10.3022 20.3346 10.3695C20.7078 10.3862 21.0477 10.4618 21.3544 10.5965C21.6609 10.731 21.9384 10.9186 22.1869 11.1592C22.4302 11.4031 22.6231 11.6784 22.7656 11.9852C22.908 12.2921 22.9866 12.6342 23.0016 13.0115C23.0476 14.4557 23.029 15.7896 22.9456 17.0132C22.8623 18.2371 22.6998 19.351 22.4581 20.355C22.2165 21.3588 21.9005 22.2522 21.5104 23.035C21.1202 23.8177 20.6494 24.4855 20.0979 25.0385C19.248 25.8923 18.3227 26.54 17.3219 26.9815C16.321 27.4228 15.2531 27.6435 14.1181 27.6435C12.9455 27.6435 11.872 27.4487 10.8979 27.059C9.92354 26.6693 9.0307 26.0586 8.21937 25.2267ZM10.9261 25.0712C11.3455 25.3546 11.8295 25.5692 12.3781 25.7152C12.9268 25.8612 13.5057 25.9342 14.1149 25.9342C14.9909 25.9342 15.8413 25.7519 16.6661 25.3872C17.4908 25.0226 18.2389 24.4962 18.9104 23.8082C19.3882 23.3262 19.7865 22.7008 20.1051 21.932C20.4238 21.1632 20.6771 20.276 20.8651 19.2705C21.0531 18.2648 21.1745 17.1559 21.2294 15.9437C21.284 14.7316 21.28 13.4432 21.2174 12.0787C19.6627 12.0414 18.2685 12.0612 17.0346 12.1382C15.801 12.2152 14.7121 12.3537 13.7681 12.5537C12.8241 12.7537 12.0145 13.0089 11.3391 13.3192C10.6638 13.6296 10.1154 14.0037 9.69387 14.4417C9.00587 15.1426 8.47654 15.8917 8.10587 16.689C7.7352 17.4863 7.54987 18.2942 7.54987 19.1125C7.54987 19.8953 7.7157 20.7207 8.04737 21.5885C8.3792 22.4563 8.7957 23.1549 9.29687 23.6842C10.155 22.0747 11.1948 20.628 12.4161 19.344C13.6376 18.06 14.956 17.033 16.3711 16.263C14.9371 17.517 13.7721 18.8712 12.8761 20.3255C11.98 21.7798 11.33 23.3617 10.9261 25.0712Z" fill="#1B391B"/>
<path d="M32.2631 15V2.43924H43.0833V15H41.3248V3.53382L41.7554 4.00036H33.5909L34.0395 3.53382V15H32.2631ZM51.5759 15.1077C50.7864 15.1077 50.0627 14.9282 49.4047 14.5693C48.7587 14.1985 48.2384 13.6542 47.8436 12.9364C47.4608 12.2187 47.2694 11.3215 47.2694 10.2449C47.2694 9.16822 47.4548 8.27102 47.8257 7.55326C48.2085 6.83551 48.7229 6.29719 49.3688 5.93831C50.0268 5.57943 50.7625 5.39999 51.5759 5.39999C52.509 5.39999 53.3345 5.60336 54.0522 6.01008C54.77 6.41681 55.3382 6.98504 55.7569 7.71476C56.1756 8.43252 56.3849 9.27588 56.3849 10.2449C56.3849 11.2138 56.1756 12.0632 55.7569 12.7929C55.3382 13.5226 54.77 14.0908 54.0522 14.4976C53.3345 14.9043 52.509 15.1077 51.5759 15.1077ZM46.5337 18.4811V5.48971H48.1845V8.05569L48.0769 10.2628L48.2563 12.4699V18.4811H46.5337ZM51.4324 13.6004C52.0425 13.6004 52.5868 13.4628 53.0653 13.1877C53.5558 12.9125 53.9386 12.5237 54.2137 12.0213C54.5008 11.5069 54.6444 10.9148 54.6444 10.2449C54.6444 9.56299 54.5008 8.97682 54.2137 8.48635C53.9386 7.98392 53.5558 7.59513 53.0653 7.31999C52.5868 7.04485 52.0425 6.90728 51.4324 6.90728C50.8343 6.90728 50.29 7.04485 49.7995 7.31999C49.321 7.59513 48.9382 7.98392 48.6511 8.48635C48.3759 8.97682 48.2384 9.56299 48.2384 10.2449C48.2384 10.9148 48.3759 11.5069 48.6511 12.0213C48.9382 12.5237 49.321 12.9125 49.7995 13.1877C50.29 13.4628 50.8343 13.6004 51.4324 13.6004ZM58.7082 15V5.48971H60.4309V12.4161L66.2626 5.48971H67.8238V15H66.1011V8.07364L60.2873 15H58.7082ZM76.0302 15.1077C75.2406 15.1077 74.5169 14.9282 73.859 14.5693C73.213 14.1985 72.6926 13.6542 72.2978 12.9364C71.915 12.2187 71.7236 11.3215 71.7236 10.2449C71.7236 9.16822 71.9091 8.27102 72.2799 7.55326C72.6627 6.83551 73.1771 6.29719 73.8231 5.93831C74.481 5.57943 75.2167 5.39999 76.0302 5.39999C76.9633 5.39999 77.7887 5.60336 78.5064 6.01008C79.2242 6.41681 79.7924 6.98504 80.2111 7.71476C80.6298 8.43252 80.8392 9.27588 80.8392 10.2449C80.8392 11.2138 80.6298 12.0632 80.2111 12.7929C79.7924 13.5226 79.2242 14.0908 78.5064 14.4976C77.7887 14.9043 76.9633 15.1077 76.0302 15.1077ZM70.9879 18.4811V5.48971H72.6388V8.05569L72.5311 10.2628L72.7105 12.4699V18.4811H70.9879ZM75.8866 13.6004C76.4967 13.6004 77.041 13.4628 77.5195 13.1877C78.01 12.9125 78.3928 12.5237 78.6679 12.0213C78.955 11.5069 79.0986 10.9148 79.0986 10.2449C79.0986 9.56299 78.955 8.97682 78.6679 8.48635C78.3928 7.98392 78.01 7.59513 77.5195 7.31999C77.041 7.04485 76.4967 6.90728 75.8866 6.90728C75.2885 6.90728 74.7442 7.04485 74.2537 7.31999C73.7752 7.59513 73.3924 7.98392 73.1053 8.48635C72.8302 8.97682 72.6926 9.56299 72.6926 10.2449C72.6926 10.9148 72.8302 11.5069 73.1053 12.0213C73.3924 12.5237 73.7752 12.9125 74.2537 13.1877C74.7442 13.4628 75.2885 13.6004 75.8866 13.6004ZM87.2357 15.1077C86.2787 15.1077 85.4294 14.8983 84.6877 14.4796C83.946 14.0609 83.3599 13.4867 82.9292 12.757C82.4985 12.0153 82.2832 11.1779 82.2832 10.2449C82.2832 9.29981 82.4985 8.46242 82.9292 7.7327C83.3599 7.00298 83.946 6.43476 84.6877 6.02803C85.4294 5.60934 86.2787 5.39999 87.2357 5.39999C88.1808 5.39999 89.0242 5.60934 89.7658 6.02803C90.5195 6.43476 91.1057 7.00298 91.5243 7.7327C91.955 8.45046 92.1703 9.28784 92.1703 10.2449C92.1703 11.1899 91.955 12.0273 91.5243 12.757C91.1057 13.4867 90.5195 14.0609 89.7658 14.4796C89.0242 14.8983 88.1808 15.1077 87.2357 15.1077ZM87.2357 13.6004C87.8458 13.6004 88.3901 13.4628 88.8686 13.1877C89.3591 12.9125 89.7419 12.5237 90.0171 12.0213C90.2922 11.5069 90.4298 10.9148 90.4298 10.2449C90.4298 9.56299 90.2922 8.97682 90.0171 8.48635C89.7419 7.98392 89.3591 7.59513 88.8686 7.31999C88.3901 7.04485 87.8458 6.90728 87.2357 6.90728C86.6257 6.90728 86.0814 7.04485 85.6028 7.31999C85.1243 7.59513 84.7415 7.98392 84.4544 8.48635C84.1673 8.97682 84.0238 9.56299 84.0238 10.2449C84.0238 10.9148 84.1673 11.5069 84.4544 12.0213C84.7415 12.5237 85.1243 12.9125 85.6028 13.1877C86.0814 13.4628 86.6257 13.6004 87.2357 13.6004ZM100.904 14.1925V6.997H96.7769L96.6872 8.82728C96.6632 9.42542 96.6214 10.0056 96.5615 10.5678C96.5137 11.1181 96.43 11.6265 96.3103 12.0931C96.2027 12.5596 96.0412 12.9424 95.8258 13.2415C95.6105 13.5406 95.3234 13.726 94.9645 13.7978L93.2599 13.4927C93.6307 13.5047 93.9298 13.385 94.1571 13.1338C94.3843 12.8707 94.5578 12.5118 94.6774 12.0572C94.809 11.6026 94.9047 11.0882 94.9645 10.514C95.0243 9.92785 95.0722 9.32373 95.1081 8.70168L95.2516 5.48971H102.627V14.1925H100.904ZM92.883 17.2071V13.4927H104.08V17.2071H102.465V15H94.5159V17.2071H92.883ZM106.145 15V5.48971H107.867V9.5271H113.286V5.48971H115.009V15H113.286V11.0164H107.867V15H106.145ZM118.179 15V5.48971H119.902V15H118.179ZM119.04 3.65943C118.705 3.65943 118.424 3.55177 118.197 3.33644C117.982 3.12111 117.874 2.85793 117.874 2.5469C117.874 2.22391 117.982 1.95475 118.197 1.73943C118.424 1.5241 118.705 1.41644 119.04 1.41644C119.375 1.41644 119.65 1.5241 119.866 1.73943C120.093 1.94279 120.207 2.19999 120.207 2.51102C120.207 2.83401 120.099 3.10915 119.884 3.33644C119.668 3.55177 119.387 3.65943 119.04 3.65943ZM32.2631 33V20.4392H33.7345L39.3689 29.9316H38.5793L44.142 20.4392H45.6134L45.6313 33H43.9087L43.8908 23.1488H44.3035L39.3509 31.4748H38.5255L33.5371 23.1488H33.9857V33H32.2631ZM54.9064 33V30.9903L54.8167 30.6135V27.1862C54.8167 26.4564 54.6013 25.8942 54.1707 25.4994C53.752 25.0927 53.118 24.8893 52.2686 24.8893C51.7064 24.8893 51.1561 24.985 50.6178 25.1764C50.0795 25.3559 49.6249 25.6011 49.254 25.9121L48.5363 24.6202C49.0267 24.2254 49.6129 23.9263 50.2948 23.723C50.9886 23.5077 51.7123 23.4 52.466 23.4C53.7699 23.4 54.7748 23.717 55.4806 24.351C56.1864 24.985 56.5393 25.954 56.5393 27.2579V33H54.9064ZM51.7841 33.1077C51.0783 33.1077 50.4563 32.988 49.918 32.7488C49.3916 32.5095 48.9849 32.1806 48.6978 31.7619C48.4107 31.3312 48.2671 30.8467 48.2671 30.3084C48.2671 29.794 48.3867 29.3275 48.626 28.9088C48.8772 28.4901 49.278 28.1551 49.8282 27.9039C50.3905 27.6527 51.1441 27.5271 52.0892 27.5271H55.1038V28.7652H52.1609C51.2996 28.7652 50.7195 28.9088 50.4204 29.1959C50.1213 29.483 49.9718 29.8299 49.9718 30.2366C49.9718 30.7032 50.1572 31.08 50.528 31.3671C50.8989 31.6422 51.4133 31.7798 52.0712 31.7798C52.7172 31.7798 53.2795 31.6363 53.758 31.3492C54.2484 31.0621 54.6013 30.6434 54.8167 30.0931L55.1576 31.2774C54.9303 31.8396 54.5295 32.2882 53.9553 32.6232C53.3811 32.9462 52.6574 33.1077 51.7841 33.1077ZM59.4617 33V23.4897H61.1844V27.5271H66.6034V23.4897H68.3261V33H66.6034V29.0164H61.1844V33H59.4617ZM77.9918 32.1925V24.997H73.8647L73.775 26.8273C73.7511 27.4254 73.7092 28.0056 73.6494 28.5678C73.6015 29.1181 73.5178 29.6265 73.3982 30.0931C73.2905 30.5596 73.129 30.9424 72.9137 31.2415C72.6984 31.5406 72.4112 31.726 72.0524 31.7978L70.3477 31.4927C70.7185 31.5047 71.0176 31.385 71.2449 31.1338C71.4722 30.8707 71.6456 30.5118 71.7653 30.0572C71.8969 29.6026 71.9926 29.0882 72.0524 28.514C72.1122 27.9278 72.16 27.3237 72.1959 26.7017L72.3395 23.4897H79.7144V32.1925H77.9918ZM69.9709 35.2071V31.4927H81.1679V35.2071H79.5529V33H71.6038V35.2071H69.9709ZM88.2748 33.1077C87.4853 33.1077 86.7615 32.9282 86.1036 32.5693C85.4576 32.1985 84.9372 31.6542 84.5425 30.9364C84.1597 30.2187 83.9683 29.3215 83.9683 28.2449C83.9683 27.1682 84.1537 26.271 84.5245 25.5533C84.9073 24.8355 85.4217 24.2972 86.0677 23.9383C86.7257 23.5794 87.4614 23.4 88.2748 23.4C89.2079 23.4 90.0333 23.6034 90.7511 24.0101C91.4688 24.4168 92.0371 24.985 92.4558 25.7148C92.8744 26.4325 93.0838 27.2759 93.0838 28.2449C93.0838 29.2138 92.8744 30.0632 92.4558 30.7929C92.0371 31.5226 91.4688 32.0908 90.7511 32.4976C90.0333 32.9043 89.2079 33.1077 88.2748 33.1077ZM83.2326 36.4811V23.4897H84.8834V26.0557L84.7757 28.2628L84.9552 30.4699V36.4811H83.2326ZM88.1313 31.6004C88.7414 31.6004 89.2857 31.4628 89.7642 31.1877C90.2546 30.9125 90.6374 30.5237 90.9126 30.0213C91.1997 29.5069 91.3432 28.9148 91.3432 28.2449C91.3432 27.563 91.1997 26.9768 90.9126 26.4863C90.6374 25.9839 90.2546 25.5951 89.7642 25.32C89.2857 25.0449 88.7414 24.9073 88.1313 24.9073C87.5331 24.9073 86.9888 25.0449 86.4984 25.32C86.0199 25.5951 85.6371 25.9839 85.3499 26.4863C85.0748 26.9768 84.9372 27.563 84.9372 28.2449C84.9372 28.9148 85.0748 29.5069 85.3499 30.0213C85.6371 30.5237 86.0199 30.9125 86.4984 31.1877C86.9888 31.4628 87.5331 31.6004 88.1313 31.6004ZM95.4071 33V23.4897H97.1297V30.4161L102.962 23.4897H104.523V33H102.8V26.0736L96.9862 33H95.4071Z" fill="#1B391B"/>
</g>
<defs>
<clipPath id="clip0_9203_70124">
<rect width="124" height="36" fill="white"/>
</clipPath>
</defs>
</svg>
