<svg width="24" height="24" viewBox="0 0 24 24" fill="none" xmlns="http://www.w3.org/2000/svg">
<path d="M4.55384 21.1495C4.09384 21.1495 3.695 20.9806 3.35734 20.6428C3.0195 20.3051 2.85059 19.9063 2.85059 19.4463V4.55376C2.85059 4.0921 3.0195 3.69185 3.35734 3.35301C3.695 3.01401 4.09384 2.84451 4.55384 2.84451H11.1593C11.3997 2.84451 11.6017 2.92793 11.7653 3.09476C11.929 3.26176 12.0108 3.46585 12.0108 3.70701C12.0108 3.94835 11.929 4.14985 11.7653 4.31151C11.6017 4.47301 11.3997 4.55376 11.1593 4.55376H4.55384V19.4463H11.1593C11.3997 19.4463 11.6017 19.5285 11.7653 19.693C11.929 19.8575 12.0108 20.0606 12.0108 20.3023C12.0108 20.5439 11.929 20.7455 11.7653 20.907C11.6017 21.0687 11.3997 21.1495 11.1593 21.1495H4.55384ZM17.8918 12.8518H9.81584C9.5755 12.8518 9.3735 12.7694 9.20984 12.6048C9.04617 12.4403 8.96434 12.2372 8.96434 11.9955C8.96434 11.754 9.04617 11.5524 9.20984 11.3908C9.3735 11.2291 9.5755 11.1483 9.81584 11.1483H17.8418L15.9186 9.22501C15.7486 9.05418 15.6678 8.8541 15.6761 8.62476C15.6844 8.39526 15.7736 8.19651 15.9436 8.02851C16.1134 7.85668 16.3158 7.77176 16.5508 7.77376C16.7857 7.77576 16.9894 7.86168 17.1621 8.03151L20.5588 11.4283C20.7247 11.5996 20.8076 11.7988 20.8076 12.026C20.8076 12.2532 20.7247 12.4518 20.5588 12.6218L17.1871 15.9935C17.0204 16.1633 16.8223 16.2451 16.5928 16.2388C16.3632 16.2324 16.1602 16.1443 15.9838 15.9745C15.8203 15.8045 15.7375 15.6017 15.7353 15.366C15.7332 15.1302 15.8193 14.9268 15.9936 14.756L17.8918 12.8518Z" fill="#1B391B"/>
</svg>
