<svg width="24" height="24" viewBox="0 0 24 24" fill="none" xmlns="http://www.w3.org/2000/svg">
<path d="M3.70234 18.2213C3.46184 18.2213 3.25975 18.1391 3.09609 17.9746C2.93242 17.8101 2.85059 17.605 2.85059 17.3593C2.85059 17.1176 2.93242 16.916 3.09609 16.7543C3.25975 16.5928 3.46184 16.5121 3.70234 16.5121H20.2978C20.5383 16.5121 20.7414 16.5943 20.9071 16.7588C21.0728 16.9233 21.1556 17.1264 21.1556 17.3681C21.1556 17.6137 21.0728 17.8173 20.9071 17.9788C20.7414 18.1405 20.5383 18.2213 20.2978 18.2213H3.70234ZM3.70234 12.8518C3.46184 12.8518 3.25975 12.7695 3.09609 12.6048C2.93242 12.4403 2.85059 12.2372 2.85059 11.9956C2.85059 11.7541 2.93242 11.5525 3.09609 11.3908C3.25975 11.2291 3.46184 11.1483 3.70234 11.1483H20.2978C20.5383 11.1483 20.7414 11.2306 20.9071 11.3953C21.0728 11.5598 21.1556 11.7629 21.1556 12.0046C21.1556 12.2461 21.0728 12.4476 20.9071 12.6093C20.7414 12.771 20.5383 12.8518 20.2978 12.8518H3.70234ZM3.70234 7.48806C3.46184 7.48806 3.25975 7.40581 3.09609 7.24131C2.93242 7.07681 2.85059 6.87172 2.85059 6.62606C2.85059 6.38439 2.93242 6.18281 3.09609 6.02131C3.25975 5.85964 3.46184 5.77881 3.70234 5.77881H20.2978C20.5383 5.77881 20.7414 5.86106 20.9071 6.02556C21.0728 6.19006 21.1556 6.39314 21.1556 6.63481C21.1556 6.88048 21.0728 7.08414 20.9071 7.24581C20.7414 7.40731 20.5383 7.48806 20.2978 7.48806H3.70234Z" fill="black"/>
</svg>
